<?xml version="1.0" standalone="no"?>
<!DOCTYPE svg PUBLIC "-//W3C//DTD SVG 1.1//EN" "http://www.w3.org/Graphics/SVG/1.1/DTD/svg11.dtd">
<svg xmlns="http://www.w3.org/2000/svg">
<defs >
<font id="MuseoModerno" horiz-adv-x="614" ><font-face
    font-family="MuseoModerno SemiBold Thin"
    units-per-em="1000"
    panose-1="0 0 0 0 0 0 0 0 0 0"
    ascent="1145"
    descent="-445"
    alphabetic="0" />
<glyph unicode=" " horiz-adv-x="265" />
<glyph unicode="!" horiz-adv-x="222" d="M98 190V700H123V190H98ZM111 -7Q101 -7 93 1T85 19Q85 30 93 37T111 45Q122 45 129 38T137 19Q137 12 134 6T124 -3T111 -7Z" />
<glyph unicode="&quot;" horiz-adv-x="361" d="M251 443V700H276V443H251ZM85 443V700H110V443H85Z" />
<glyph unicode="#" horiz-adv-x="720" d="M167 0L200 215H29V238H204L241 474H64V497H244L276 700H302L270 497H469L501 700H527L495 497H670V474H492L455 238H635V215H451L418 0H392L425 215H226L193 0H167ZM230 238H429L466 474H267L230 238Z" />
<glyph unicode="$" horiz-adv-x="626" d="M291 -119V13H318V-119H291ZM291 686V819H318V686H291ZM78 0V23H386Q440 23 476 47T531 110T549 188Q549 228 532 264T480 322T392 345H237Q177 345 137 370T76 435T55 518Q55 563 76 605T139 673T243 700H529V677H243Q191
677 155 654T99 595T80 521Q80 484 97 449T150 391T237 368H392Q453 368 493 343T554 278T574 191Q574 144 554 100T491 28T386 0H78Z" />
<glyph unicode="%" horiz-adv-x="907" d="M219 337Q178 337 142 356T83 411T60 498V552Q60 604 82 639T141 694T219 713Q260 713 296 694T355 640T378 552V498Q378 447 356 411T297 356T219 337ZM219 360Q253 360 283 376T333 423T353 501V548Q353 595 334 626T284
674T219 690Q185 690 155 674T105 627T85 548V501Q85 455 104 424T154 376T219 360ZM688 -13Q647 -13 611 6T552 61T529 148V202Q529 254 551 289T610 344T688 363Q729 363 765 344T824 290T847 202V148Q847 97 825 61T766 6T688 -13ZM688 10Q722 10 752 26T802
73T822 151V198Q822 245 803 276T753 324T688 340Q654 340 624 324T574 277T554 198V151Q554 105 573 74T623 26T688 10ZM186 0L686 700H716L216 0H186Z" />
<glyph unicode="&amp;" horiz-adv-x="834" d="M678 -216Q643 -216 613 -201T565 -157T547 -85Q547 -38 572 -6T637 43T722 62Q718 66 698 83T631 140L559 199Q523 128 483 81T393 10T274 -13Q208 -13 156 16T75 96T45 212Q45 257 64 303T127 391T242 460Q225 474
205 493T169 537T154 590Q154 622 170 650T216 695T289 713Q327 713 356 697T401 655T417 594Q417 548 383 513T287 453L551 237L559 253Q593 325 617 366T660 426T699 451T745 456H766V433H746Q723 433 706 428T671 403T631 343T577 235L571 221L686 127Q741 82
769 49T808 -12T819 -70Q819 -109 802 -142T754 -195T678 -216ZM279 10Q339 10 384 31T466 98T540 215L262 444Q192 417 150 378T89 294T70 209Q70 154 96 109T169 37T279 10ZM680 -192Q730 -192 762 -159T794 -70Q794 -43 784 -15T744 40Q697 40 658 26T596 -17T572
-89Q572 -132 601 -162T680 -192ZM268 469Q298 481 326 497T373 537T392 593Q392 633 364 661T283 690Q249 690 226 676T191 639T179 593Q179 565 194 542T230 501T268 469Z" />
<glyph unicode="&apos;" horiz-adv-x="195" d="M85 443V700H110V443H85Z" />
<glyph unicode="(" horiz-adv-x="300" d="M268 -180Q204 -103 160 10T115 275Q115 426 159 540T268 730H300Q232 654 186 540T140 275Q140 124 186 11T300 -180H268Z" />
<glyph unicode=")" horiz-adv-x="300" d="M0 -180Q68 -103 114 10T160 275Q160 426 114 540T0 730H32Q96 654 140 540T185 275Q185 124 141 11T32 -180H0Z" />
<glyph unicode="*" horiz-adv-x="457" d="M216 328V493L72 411L60 433L203 515L60 597L72 619L216 537V702H241V537L385 619L397 597L254 515L397 433L385 411L241 493V328H216Z" />
<glyph unicode="+" horiz-adv-x="600" d="M288 131V334H85V357H288V561H313V357H515V334H313V131H288Z" />
<glyph unicode="," horiz-adv-x="122" d="M25 -139L59 -7Q49 -6 42 1T35 19Q35 30 43 37T61 45Q72 45 79 38T87 19Q87 12 86 5T82 -11L49 -139H25Z" />
<glyph unicode="-" horiz-adv-x="363" d="M40 257V280H323V257H40Z" />
<glyph unicode="." horiz-adv-x="122" d="M61 -7Q51 -7 43 1T35 19Q35 30 43 37T61 45Q72 45 79 38T87 19Q87 12 84 6T74 -3T61 -7Z" />
<glyph unicode="/" horiz-adv-x="358" d="M-15 -100L318 730H343L10 -100H-15Z" />
<glyph unicode="0" horiz-adv-x="647" d="M325 -14Q257 -14 203 16T117 99T85 217V482Q85 547 116 599T202 682T325 713Q392 713 445 683T530 600T562 482V217Q562 152 531 100T446 17T325 -14ZM325 9Q383 9 431 35T508 107T537 207V492Q537 547 508 592T431 663T325
690Q266 690 217 664T139 592T110 492V207Q110 152 139 107T217 36T325 9Z" />
<glyph unicode="1" horiz-adv-x="425" d="M61 0V23H216V677H60V700H241V23H380V0H61Z" />
<glyph unicode="2" horiz-adv-x="539" d="M148 0Q116 0 94 12T60 44T49 87Q49 110 61 133T98 175L345 350Q396 386 422 431T448 520Q448 562 426 597T361 655T252 677H79V700H253Q326 700 375 675T448 609T473 521Q473 472 445 422T362 333L116 158Q95 143 85
125T75 88Q75 62 95 43T154 23H484V0H148Z" />
<glyph unicode="3" horiz-adv-x="532" d="M60 0V23H287Q340 23 375 46T429 107T447 184Q447 226 428 264T371 326T275 350H100V373H282Q338 373 374 395T429 452T448 525Q448 563 430 597T374 654T282 677H60V700H291Q349 700 389 675T451 610T472 528Q472 463
437 419T337 359Q383 349 413 322T457 259T472 185Q472 139 452 97T393 27T295 0H60Z" />
<glyph unicode="4" horiz-adv-x="641" d="M451 0V175H153Q123 175 103 189T71 225T60 273Q60 288 64 302T75 330L291 700H319L99 325Q92 313 89 300T85 273Q85 244 103 221T156 198H451V477H476V198H581V175H476V0H451Z" />
<glyph unicode="5" horiz-adv-x="564" d="M85 0V23H288Q351 23 393 51T457 122T478 213Q478 258 458 299T399 365T298 391H96V700H459V677H121V414H303Q370 414 414 385T481 310T504 213Q504 160 480 111T409 31T291 0H85Z" />
<glyph unicode="6" horiz-adv-x="604" d="M304 -14Q243 -14 187 11T96 88T60 214Q60 275 87 333T162 465L319 699H345L120 360Q157 401 207 421T309 441Q387 441 439 408T518 323T544 214Q544 138 509 87T419 11T304 -14ZM304 8Q358 8 407 31T488 100T519 217Q519
268 496 314T426 389T308 419Q254 419 203 396T118 327T85 214Q85 146 117 100T199 31T304 8Z" />
<glyph unicode="7" horiz-adv-x="503" d="M128 0L409 580Q425 610 425 634Q425 653 412 665T364 677H25V700H370Q401 700 418 691T443 667T451 635Q451 622 448 609T438 583L156 0H128Z" />
<glyph unicode="8" horiz-adv-x="626" d="M313 -13Q225 -13 169 16T87 91T60 189Q60 226 73 261T119 326T209 373Q140 395 111 438T82 527Q82 573 106 615T182 685T313 712Q393 712 444 685T519 616T544 527Q544 481 515 438T417 373Q474 356 506 327T552 262T566
189Q566 138 540 92T457 16T313 -13ZM313 10Q392 10 442 36T517 104T541 188Q541 263 485 312T313 361Q198 361 142 312T85 188Q85 145 109 104T183 37T313 10ZM313 384Q416 384 467 424T519 536Q519 575 497 610T429 667T313 689Q244 689 198 667T130 610T107
536Q107 464 158 424T313 384Z" />
<glyph unicode="9" horiz-adv-x="604" d="M250 0L484 352Q447 308 399 290T298 271Q219 271 166 302T87 383T60 487Q60 543 87 595T167 680T300 713Q361 713 417 688T508 612T544 485Q544 445 532 409T498 334T442 247L276 0H250ZM299 293Q354 293 404 316T486
382T519 485Q519 553 487 599T405 668T300 691Q229 691 181 662T109 586T85 489Q85 439 108 394T178 321T299 293Z" />
<glyph unicode=":" horiz-adv-x="122" d="M61 464Q51 464 43 472T35 490Q35 501 43 508T61 516Q72 516 79 509T87 490Q87 483 84 477T74 468T61 464ZM61 -7Q51 -7 43 1T35 19Q35 30 43 37T61 45Q72 45 79 38T87 19Q87 12 84 6T74 -3T61 -7Z" />
<glyph unicode=";" horiz-adv-x="122" d="M61 464Q51 464 43 472T35 490Q35 501 43 508T61 516Q72 516 79 509T87 490Q87 480 80 472T61 464ZM25 -139L59 -7Q49 -6 42 1T35 19Q35 30 43 37T61 45Q72 45 79 38T87 19Q87 12 86 5T82 -11L49 -139H25Z" />
<glyph unicode="&lt;" horiz-adv-x="556" d="M506 110V139L73 351L506 564V593L50 367V335L506 110Z" />
<glyph unicode="=" horiz-adv-x="600" d="M85 435V458H514V435H85ZM85 237V260H515V237H85Z" />
<glyph unicode="&gt;" horiz-adv-x="556" d="M50 110V139L483 351L50 564V593L506 367V335L50 110Z" />
<glyph unicode="?" horiz-adv-x="422" d="M114 228V253Q193 253 245 284T324 363T351 465Q351 518 325 566T246 646T114 677H60V700H114Q202 700 260 666T347 577T377 463Q377 405 348 351T261 263T114 228ZM134 -7Q124 -7 116 1T108 19Q108 30 116 37T134 45Q145
45 152 38T160 19Q160 12 157 6T147 -3T134 -7Z" />
<glyph unicode="@" horiz-adv-x="1080" d="M588 -218Q463 -216 365 -179T199 -77T96 72T60 254Q60 353 97 438T200 588T353 689T540 726Q640 726 727 690T880 589T983 439T1020 254Q1020 206 1005 160T955 84T865 54Q806 54 770 87T721 179Q698 123 651 89T537
54Q482 54 436 81T363 153T335 254Q335 310 362 355T436 428T537 456Q593 456 639 429T712 356T740 254V215Q740 174 756 143T801 94T861 76Q910 76 939 103T982 172T995 254Q995 346 960 427T863 571T718 668T540 704Q445 704 363 669T218 571T120 428T85 254Q85
163 118 83T216 -59T374 -157T588 -195H600V-218H588ZM537 76Q590 76 630 101T693 167T716 254Q716 300 693 341T630 407T537 433Q485 433 445 408T383 341T360 254Q360 208 382 168T445 102T537 76Z" />
<glyph unicode="A" horiz-adv-x="655" d="M5 0L259 650Q273 685 288 699T326 713Q350 713 365 699T394 651L650 0H623L539 212H115L32 0H5ZM124 235H530L370 642Q361 664 352 677T326 690Q309 690 301 678T283 642L124 235Z" />
<glyph unicode="B" horiz-adv-x="686" d="M85 0V700H445Q503 700 542 675T603 611T624 526Q624 491 608 457T563 396T493 360Q539 353 572 328T623 266T641 187Q641 141 620 98T555 28T443 0H85ZM110 24H449Q505 24 542 47T597 108T616 187Q616 227 596 263T538
322T441 345H110V24ZM110 369H426Q480 369 519 392T578 451T599 526Q599 565 581 599T527 655T441 677H110V369Z" />
<glyph unicode="C" horiz-adv-x="479" d="M387 0Q309 0 244 27T130 103T56 215T30 351Q30 423 56 486T130 597T243 672T387 700H449V677H390Q320 677 260 652T154 583T84 480T58 351Q58 281 83 222T154 118T259 49T390 24H449V0H387Z" />
<glyph unicode="D" horiz-adv-x="714" d="M85 0V700H292Q402 700 483 655T609 532T654 351Q654 249 610 170T484 45T292 0H85ZM110 23H294Q390 23 466 62T585 175T629 351Q629 452 586 525T466 637T294 677H110V23Z" />
<glyph unicode="E" horiz-adv-x="549" d="M238 0Q180 0 140 26T80 95T59 182Q59 238 89 287T180 356Q120 380 93 424T65 518Q65 568 88 609T150 674T239 699H499V676H242Q197 676 163 655T110 598T90 518Q90 478 111 444T167 389T248 368H459V345H255Q198 345
160 321T103 260T84 181Q84 141 102 105T156 46T245 23H499V0H238Z" />
<glyph unicode="F" horiz-adv-x="512" d="M85 0V551Q86 597 104 630T155 682T235 700H477V677H237Q176 677 143 642T110 551V365H437V342H110V0H85Z" />
<glyph unicode="G" horiz-adv-x="863" d="M631 -224Q593 -224 559 -206T502 -151T480 -60Q480 -48 481 -35T484 -8Q402 -20 326 -2T190 64T95 183T60 350Q60 425 85 491T158 607T271 685T419 713Q501 713 567 685T680 607T752 491T778 350V-60Q778 -117 758 -153T704
-206T631 -224ZM629 -199Q679 -199 716 -166T753 -63V269Q676 231 628 188T553 100T517 15T507 -59Q507 -104 524 -135T570 -183T629 -199ZM419 10Q439 10 454 11T489 17Q500 63 529 112T612 209T753 299V350Q753 423 728 485T658 593T552 664T419 690Q347 690
286 665T180 593T110 485T85 350Q85 277 110 215T180 107T286 36T419 10Z" />
<glyph unicode="H" horiz-adv-x="684" d="M85 0V699H110V368H574V699H599V0H574V345H110V0H85Z" />
<glyph unicode="I" horiz-adv-x="424" d="M52 0V23H200V677H52V700H372V677H225V23H372V0H52Z" />
<glyph unicode="J" horiz-adv-x="388" d="M163 -216Q129 -216 97 -201T45 -155T25 -74Q25 -27 44 28T118 147T278 284V677H111V700H303V-60Q303 -117 283 -151T230 -200T163 -216ZM161 -193Q191 -193 218 -180T261 -138T278 -63V254Q182 187 133 128T67 18T50
-73Q50 -135 84 -164T161 -193Z" />
<glyph unicode="K" horiz-adv-x="680" d="M85 0V700H110V348H365Q420 348 464 367T535 423T562 511L563 700H588V513Q588 447 550 401T448 337L549 82Q563 51 578 38T624 24H648V0H621Q586 0 563 17T525 71L424 331Q409 328 394 327T362 325H110V0H85Z" />
<glyph unicode="L" horiz-adv-x="473" d="M235 0Q187 0 154 18T103 72T85 154V699H110V149Q110 93 143 58T237 23H428V0H235Z" />
<glyph unicode="M" horiz-adv-x="1094" d="M549 -13Q503 -13 467 8T409 69T388 160V547Q388 588 369 620T319 671T249 690Q211 690 179 672T129 621T110 547V0H85V540Q85 592 106 631T164 691T249 713Q296 713 333 692T391 631T413 540V153Q413 111 432 79T482
29T549 10Q585 10 615 28T663 79T681 153V540Q681 592 702 631T761 691T846 713Q893 713 930 692T988 631T1009 540V0H984V547Q984 588 966 620T916 671T846 690Q807 690 775 672T725 621T706 547V160Q706 108 686 69T631 9T549 -13Z" />
<glyph unicode="N" horiz-adv-x="790" d="M549 -13Q503 -13 467 8T409 69T388 160V547Q388 588 369 620T319 671T249 690Q211 690 179 672T129 621T110 547V0H85V540Q85 592 106 631T164 691T249 713Q296 713 333 692T391 631T413 540V153Q413 111 432 79T482
29T549 10Q585 10 615 28T662 79T680 153V700H705V160Q705 108 685 69T630 9T549 -13Z" />
<glyph unicode="O" horiz-adv-x="838" d="M419 -13Q338 -13 272 15T158 93T86 209T60 350Q60 425 85 491T158 607T271 685T420 713Q501 713 567 685T680 607T752 491T778 350Q778 275 753 209T680 93T567 15T419 -13ZM419 10Q491 10 552 35T658 107T728 215T753
350Q753 423 728 485T658 593T552 664T419 690Q347 690 286 665T180 593T110 485T85 350Q85 277 110 215T180 107T286 36T419 10Z" />
<glyph unicode="P" horiz-adv-x="665" d="M85 0V700H383Q444 700 494 673T575 598T605 484Q605 422 577 374T497 298T377 270H110V0H85ZM110 293H375Q432 293 478 315T552 381T580 484Q580 545 553 588T479 654T379 677H110V293Z" />
<glyph unicode="Q" horiz-adv-x="838" d="M407 -203V0H432V-203H407ZM419 -13Q338 -13 272 15T158 93T86 209T60 350Q60 425 85 491T158 607T271 685T420 713Q501 713 567 685T680 607T752 491T778 350Q778 275 753 209T680 93T567 15T419 -13ZM419 10Q491 10
552 35T658 107T728 215T753 350Q753 423 728 485T658 593T552 664T419 690Q347 690 286 665T180 593T110 485T85 350Q85 277 110 215T180 107T286 36T419 10Z" />
<glyph unicode="R" horiz-adv-x="670" d="M85 0V700H383Q444 700 494 674T575 601T605 490Q605 419 566 366T458 293L548 82Q562 51 577 38T624 24H648V0H621Q586 0 564 18T525 71L434 286Q421 284 407 283T377 281H110V0H85ZM110 304H375Q432 304 478 326T552
389T580 490Q580 549 553 591T479 655T379 677H110V304Z" />
<glyph unicode="S" horiz-adv-x="629" d="M78 0V23H386Q440 23 476 47T531 110T549 188Q549 228 532 264T480 322T392 345H237Q177 345 137 370T76 435T55 518Q55 563 76 605T139 673T243 700H529V677H243Q191 677 155 654T99 595T80 521Q80 484 97 449T150 391T237
368H392Q453 368 493 343T554 278T574 191Q574 144 554 100T491 28T386 0H78Z" />
<glyph unicode="T" horiz-adv-x="575" d="M425 0Q377 0 344 18T293 72T275 154V677H35V700H540V677H300V149Q300 93 333 58T427 23H467V0H425Z" />
<glyph unicode="U" horiz-adv-x="685" d="M343 -13Q268 -13 210 20T118 116T85 264V700H110V253Q110 187 138 132T219 44T343 11Q415 11 467 44T547 132T575 253V700H600V264Q600 179 567 117T476 21T343 -13Z" />
<glyph unicode="V" horiz-adv-x="655" d="M326 -13Q305 -13 292 2T265 51L5 700H30L284 60Q293 38 301 24T326 9Q343 9 351 23T369 60L625 700H650L388 50Q375 16 362 2T326 -13Z" />
<glyph unicode="W" horiz-adv-x="1156" d="M338 -13Q264 -13 207 18T117 107T85 244V700H110V241Q110 178 137 126T216 42T338 10Q408 10 459 41T538 125T566 241V700H591V241Q591 178 619 126T698 42T819 10Q889 10 940 41T1018 125T1046 241V700H1071V244Q1071
165 1039 107T950 18T819 -13Q766 -13 716 5T630 64T579 166Q565 104 528 65T441 6T338 -13Z" />
<glyph unicode="X" horiz-adv-x="653" d="M60 0L313 353Q253 358 201 388T116 472T83 600V700H108V587Q108 534 137 486T215 407T328 375L561 700H591L358 375Q439 372 491 341T568 259T593 148V0H568V152Q568 239 509 294T342 352L90 0H60Z" />
<glyph unicode="Y" horiz-adv-x="685" d="M329 0V217Q245 221 191 260T111 361T85 496V699H110V490Q110 424 136 367T215 275T343 240Q419 240 470 275T548 367T575 490V699H600V496Q600 424 574 362T493 260T354 217V0H329Z" />
<glyph unicode="Z" horiz-adv-x="623" d="M193 0Q132 0 99 37T65 121Q65 164 84 188T146 243L464 475Q504 504 518 527T533 585Q533 607 521 628T489 663T442 677H94L95 700H433Q474 700 502 683T544 640T558 584Q558 538 536 510T473 452L163 225Q134 204 118
189T96 158T89 117Q89 96 101 74T136 38T189 23H551V0H193Z" />
<glyph unicode="[" horiz-adv-x="294" d="M85 -180V730H279V707H110V-157H279V-180H85Z" />
<glyph unicode="\" horiz-adv-x="294" d="M297 -100L-13 730H12L322 -100H297Z" />
<glyph unicode="]" horiz-adv-x="294" d="M15 -180V-157H184V707H15V730H209V-180H15Z" />
<glyph unicode="^" horiz-adv-x="570" d="M78 376L271 730H297L490 376H461L284 706L105 376H78Z" />
<glyph unicode="_" horiz-adv-x="500" d="M0 -84V-61H500V-84H0Z" />
<glyph unicode="`" horiz-adv-x="205" d="M98 757L-6 880H22L126 757H98Z" />
<glyph unicode="a" horiz-adv-x="657" d="M314 -13Q233 -13 176 22T90 119T60 256Q60 332 91 392T181 487T321 522Q395 522 451 488T540 396T572 264V0H547V133H544Q530 101 499 67T422 10T314 -13ZM314 9Q380 9 432 41T516 129T546 258Q546 328 518 382T439 468T319
500Q246 500 194 468T114 379T86 250Q86 184 112 129T190 42T314 9Z" />
<glyph unicode="b" horiz-adv-x="648" d="M335 -13Q273 -13 216 16T122 103T85 247V730H110V377H113Q131 419 165 451T243 503T336 522Q401 522 458 491T552 401T588 255Q588 188 567 138T509 54T427 4T335 -13ZM334 10Q391 10 443 37T529 119T563 255Q563 332
530 386T446 470T337 499Q280 499 228 472T143 390T110 253Q110 172 142 118T226 37T334 10Z" />
<glyph unicode="c" horiz-adv-x="424" d="M335 0Q256 0 194 34T96 125T60 255Q60 327 96 384T194 476T335 510H389V487H327Q263 487 208 456T119 373T85 255Q85 190 119 138T208 54T327 23H389V0H335Z" />
<glyph unicode="d" horiz-adv-x="648" d="M313 -13Q375 -13 432 16T526 103T563 247V730H538V377H535Q517 419 483 451T405 503T312 522Q247 522 190 491T96 401T60 255Q60 188 81 138T139 54T221 4T313 -13ZM314 10Q257 10 205 37T119 119T85 255Q85 332 118
386T202 470T311 499Q368 499 420 472T505 390T538 253Q538 172 506 118T422 37T314 10Z" />
<glyph unicode="e" horiz-adv-x="581" d="M346 0Q267 0 202 28T99 113T60 255Q60 324 88 385T168 484T295 522Q363 522 414 491T493 407T521 287Q521 276 521 266T518 244H86Q86 172 121 123T214 48T338 23H458V0H346ZM86 267H494Q496 287 493 316T479 377T444
436T384 481T292 499Q244 499 206 479T141 424T100 349T86 267Z" />
<glyph unicode="f" horiz-adv-x="372" d="M110 0V487H20V510H110V585Q110 653 148 691T255 730H352V707H262Q198 707 167 673T135 575V510H335V487H135V0H110Z" />
<glyph unicode="g" horiz-adv-x="651" d="M163 -203V-180H394Q466 -180 503 -140T541 -28V133H538Q524 101 493 67T416 10T309 -13Q231 -13 175 22T90 118T60 255Q60 331 90 391T177 486T312 521Q386 521 443 487T533 395T566 263V-38Q566 -113 522 -158T401 -203H163ZM309
10Q375 10 427 42T510 129T541 257Q541 327 512 381T431 466T310 498Q240 498 190 466T112 377T85 249Q85 183 112 129T189 42T309 10Z" />
<glyph unicode="h" horiz-adv-x="634" d="M85 0V730H110V399Q139 460 195 491T317 523Q375 523 428 498T515 424T549 299L548 0H524V295Q524 363 494 408T416 477T316 500Q265 500 218 478T140 410T110 295V0H85Z" />
<glyph unicode="i" horiz-adv-x="195" d="M85 0V510H110V0H85ZM98 878Q88 878 80 886T72 904Q72 915 80 922T98 930Q109 930 116 923T124 904Q124 894 117 886T98 878Z" />
<glyph unicode="j" horiz-adv-x="195" d="M-78 -109L-77 -86H-42Q23 -86 54 -52T85 46V510H110V36Q110 -31 71 -70T-36 -109H-78ZM97 878Q87 878 79 886T71 904Q71 915 79 922T97 930Q108 930 115 923T123 904Q123 894 116 886T97 878Z" />
<glyph unicode="k" horiz-adv-x="620" d="M85 0V730H110V268H338L488 510H519L366 265Q449 252 495 193T542 46V0H517V46Q517 104 493 148T425 219T319 245H110V0H85Z" />
<glyph unicode="l" horiz-adv-x="195" d="M85 0V730H110V0H85Z" />
<glyph unicode="m" horiz-adv-x="974" d="M85 0V312Q85 370 109 417T179 493T288 522Q321 522 361 511T435 467T486 374H487Q504 435 539 467T614 510T687 522Q750 522 795 494T865 418T889 312V0H865V312Q865 367 842 409T778 475T686 500Q633 500 591 475T524
408T499 312V0H474V312Q474 365 449 407T382 475T287 500Q236 500 196 476T132 409T109 312V0H85Z" />
<glyph unicode="n" d="M85 0V299Q85 374 117 423T201 498T307 523Q363 523 413 498T496 424T529 299V0H504V295Q504 363 476 408T402 477T306 500Q257 500 212 478T139 410T110 295V0H85Z" />
<glyph unicode="o" horiz-adv-x="636" d="M318 -13Q242 -13 184 22T93 119T60 255Q60 330 93 391T184 487T318 523Q394 523 452 488T543 392T576 255Q576 180 543 119T452 23T318 -13ZM318 10Q386 10 438 42T521 130T551 255Q551 324 521 379T439 467T318 500Q250
500 198 468T115 380T85 255Q85 186 115 131T197 43T318 10Z" />
<glyph unicode="p" horiz-adv-x="648" d="M335 523Q273 523 216 494T122 407T85 263V-220H110V133H113Q131 91 165 59T243 7T336 -12Q401 -12 458 19T552 109T588 255Q588 322 567 372T509 456T427 506T335 523ZM334 500Q391 500 443 473T529 391T563 255Q563
178 530 124T446 40T337 11Q280 11 228 38T143 120T110 257Q110 338 142 392T226 473T334 500Z" />
<glyph unicode="q" horiz-adv-x="636" d="M306 -203V-6H330V-203H306ZM318 -13Q242 -13 184 22T93 119T60 255Q60 330 93 391T184 487T318 523Q394 523 452 488T543 392T576 255Q576 180 543 119T452 23T318 -13ZM318 10Q386 10 438 42T521 130T551 255Q551 324
521 379T439 467T318 500Q250 500 198 468T115 380T85 255Q85 186 115 131T197 43T318 10Z" />
<glyph unicode="r" horiz-adv-x="297" d="M85 0V365Q85 433 123 471T230 510H282V487H237Q173 487 142 453T110 355V0H85Z" />
<glyph unicode="s" horiz-adv-x="514" d="M65 0V23H300Q343 23 372 41T416 89T431 148Q431 176 419 201T380 242T314 258H200Q151 258 119 275T71 321T55 381Q55 414 70 443T116 491T191 510H418V487H194Q139 487 111 455T82 382Q82 344 111 313T203 282H305Q359
282 393 263T443 214T459 150Q459 114 441 80T390 23T310 0H65Z" />
<glyph unicode="t" horiz-adv-x="391" d="M255 0Q187 0 149 39T110 145V638H135V155Q135 91 166 57T262 23H352V0H255ZM20 487V510H356V487H20Z" />
<glyph unicode="u" horiz-adv-x="617" d="M308 -13Q253 -13 202 12T118 87T85 211V510H111V215Q111 147 139 101T213 33T307 10Q358 10 403 33T477 101T506 215V510H532V211Q532 137 499 87T415 12T308 -13Z" />
<glyph unicode="v" horiz-adv-x="579" d="M289 -12Q270 -12 257 1T230 45L35 509H65L256 47Q264 28 272 20T290 12Q300 12 306 20T321 47L514 509H544L347 43Q334 12 321 0T289 -12Z" />
<glyph unicode="w" horiz-adv-x="965" d="M228 -13Q188 -13 156 3T104 54T85 149V510H110V139Q110 92 127 64T170 23T227 10Q256 10 283 23T327 64T345 139V371Q345 428 365 461T416 509T482 523Q516 523 547 509T599 462T619 371V139Q619 93 636 65T680 23T739
10Q768 10 794 23T837 64T854 139V510H880V149Q880 90 861 55T810 3T739 -13Q699 -13 666 3T614 54T594 149V375Q594 423 578 450T536 489T482 500Q454 500 429 489T387 451T370 375V149Q370 90 351 55T299 3T228 -13Z" />
<glyph unicode="x" horiz-adv-x="599" d="M62 0L270 254Q212 262 165 292T89 368T60 466V509H85V466Q85 412 116 370T199 302T307 274L497 509H528L333 269Q393 257 439 226T512 148T539 44V0H514V44Q514 100 487 144T411 216T298 251L95 0H62Z" />
<glyph unicode="y" horiz-adv-x="616" d="M295 -203V-13Q241 -10 193 16T115 91T85 211V510H111V215Q111 147 139 101T213 33T307 10Q358 10 403 33T478 101T507 215V510H531V211Q531 139 501 90T423 16T320 -13V-203H295Z" />
<glyph unicode="z" horiz-adv-x="518" d="M135 0Q107 0 86 12T52 45T40 88Q40 120 54 141T104 184L378 346Q410 365 419 383T428 423Q428 447 409 467T357 487H65V510H367Q394 510 414 498T446 465T458 422Q458 391 445 369T396 326L123 164Q90 145 81 127T71
87Q71 63 91 43T145 23H452V0H135Z" />
<glyph unicode="{" horiz-adv-x="343" d="M267 -180Q218 -180 191 -149T163 -64V184Q163 208 151 230T119 266T71 280H45V303H71Q111 303 137 332T163 399V624Q163 674 190 702T267 730H328V707H266Q231 707 210 685T188 625V399Q188 384 180 361T155 318T112
291Q139 284 155 264T180 222T188 183V-69Q188 -109 209 -133T266 -157H328V-180H267Z" />
<glyph unicode="|" horiz-adv-x="195" d="M85 -180V730H110V-180H85Z" />
<glyph unicode="}" horiz-adv-x="343" d="M15 -180V-157H77Q112 -157 133 -133T155 -69V183Q155 199 163 221T188 264T231 291Q205 298 188 318T163 361T155 399V625Q155 662 134 684T77 707H15V730H76Q125 730 152 702T180 624V399Q180 362 206 333T272 303H298V280H272Q246
280 225 266T192 230T180 184V-64Q180 -118 153 -149T76 -180H15Z" />
<glyph unicode="~" horiz-adv-x="576" d="M371 302Q339 302 313 312T263 337T217 362T170 373Q143 373 119 363T64 325L49 343Q75 367 104 382T167 397Q197 397 222 386T270 361T318 336T372 325Q402 325 427 337T474 368T515 402L530 384Q483 342 448 322T371 302Z" />
<glyph unicode="&#xa0;" horiz-adv-x="265" />
<glyph unicode="&#xa1;" horiz-adv-x="222" d="M98 -192V307H123V-192H98ZM111 517Q118 517 124 514T133 504T137 491Q137 481 130 473T111 465Q101 465 93 473T85 491Q85 502 93 509T111 517Z" />
<glyph unicode="&#xa2;" horiz-adv-x="409" d="M250 -119V18L274 15V-119H250ZM250 492V629H274V495L250 492ZM335 0Q256 0 194 34T96 125T60 255Q60 327 96 384T194 476T335 510H389V487H327Q263 487 208 456T119 373T85 255Q85 190 119 138T208 54T327 23H389V0H335Z" />
<glyph unicode="&#xa3;" horiz-adv-x="595" d="M85 0V23H199V516Q199 571 220 612T279 676T368 699H501V676H368Q304 676 264 632T224 516V23H535V0H85ZM85 355V378H428V355H85Z" />
<glyph unicode="&#xa4;" horiz-adv-x="660" d="M78 45L60 63L141 144Q110 177 92 220T73 316Q73 367 91 410T139 486L64 560L82 578L156 503Q191 535 236 552T327 570Q380 570 424 552T502 502L583 582L600 564L519 484Q585 412 585 316Q585 269 567 225T517 146L600
65L582 45L499 128Q465 98 422 81T327 63Q231 63 159 127L78 45ZM327 88Q390 88 442 118T526 201T558 316Q558 380 527 431T443 514T327 545Q264 545 213 514T131 431T100 316Q100 256 128 204T208 120T327 88Z" />
<glyph unicode="&#xa5;" horiz-adv-x="685" d="M329 0V139H45V162H329V258Q290 260 257 270T198 297H45V320H169Q126 359 106 416T85 537V700H110V531Q110 465 136 408T215 316T343 281Q419 281 470 316T548 408T575 531V700H600V537Q600 473 580 416T516 320H641V297H486Q460
280 427 270T354 258V162H641V139H354V0H329Z" />
<glyph unicode="&#xa6;" horiz-adv-x="195" d="M85 331V730H110V331H85ZM85 -180V219H110V-180H85Z" />
<glyph unicode="&#xa7;" horiz-adv-x="622" d="M154 -157V-134H338Q389 -134 421 -115T468 -65T484 -2Q484 26 471 56T429 108T352 130H201Q154 130 123 151T76 206T60 276Q60 307 71 337T109 389T176 418Q137 435 119 470T101 544Q101 583 119 618T176 677T276
700H456V677H272Q221 677 189 658T142 609T126 545Q126 515 138 487T176 441T241 422H421Q468 422 499 401T546 346T562 276Q562 242 548 210T505 156T431 131Q470 112 489 76T509 -1Q509 -39 491 -75T435 -134T334 -157H154ZM207 153H420Q459 153 484 171T523
217T536 276Q536 307 523 335T484 381T415 399H202Q163 399 137 381T99 335T86 276Q86 246 99 218T139 171T207 153Z" />
<glyph unicode="&#xa8;" horiz-adv-x="356" d="M241 720Q233 720 227 726T220 741Q220 750 226 756T241 763Q250 763 256 757T263 741Q263 733 257 727T241 720ZM88 720Q80 720 74 726T67 741Q67 750 73 756T88 763Q97 763 103 757T110 741Q110 733 104 727T88 720Z" />
<glyph unicode="&#xa9;" horiz-adv-x="883" d="M442 -39Q362 -39 293 -10T171 72T90 193T60 343Q60 423 89 492T171 613T292 694T442 724Q522 724 591 695T712 613T793 492T823 343Q823 263 794 194T712 72T591 -9T442 -39ZM442 -15Q516 -15 581 13T695 90T772
204T800 343Q800 417 772 482T695 596T581 673T442 701Q368 701 303 673T189 596T113 482T85 343Q85 269 112 204T189 90T303 13T442 -15ZM478 149Q423 149 378 174T308 241T282 338Q283 392 308 435T378 502T477 527H527V504H472Q427 504 390 482T330 422T307
338Q307 293 329 256T389 195T472 172H527V149H478Z" />
<glyph unicode="&#xaa;" horiz-adv-x="434" d="M218 386Q169 386 134 408T79 467T60 550Q60 596 79 632T133 691T218 713Q266 713 300 692T354 635T374 554V391H343V456H342Q323 422 294 404T218 386ZM218 413Q268 413 305 449T343 550Q343 607 310 646T218 686Q157
686 124 647T90 550Q90 493 123 453T218 413Z" />
<glyph unicode="&#xab;" horiz-adv-x="508" d="M393 119L238 314L393 510H423L268 314L423 119H393ZM215 119L60 314L215 510H245L90 314L245 119H215Z" />
<glyph unicode="&#xac;" horiz-adv-x="559" d="M495 186V303H40V326H519V186H495Z" />
<glyph unicode="&#xad;" horiz-adv-x="363" d="M40 257V280H323V257H40Z" />
<glyph unicode="&#xae;" horiz-adv-x="883" d="M442 -39Q362 -39 293 -10T171 72T90 193T60 343Q60 423 89 492T171 613T292 694T442 724Q522 724 591 695T712 613T793 492T823 343Q823 263 794 194T712 72T591 -9T442 -39ZM442 -15Q516 -15 581 13T695 90T772
204T800 343Q800 417 772 482T695 596T581 673T442 701Q368 701 303 673T189 596T113 482T85 343Q85 269 112 204T189 90T303 13T442 -15ZM312 148V527H470Q506 527 534 512T578 470T595 409Q595 375 574 342T506 298L564 190Q570 180 578 176T598 171H615V148H599Q582
148 566 155T541 179L481 292H337V148H312ZM337 316H469Q507 316 538 341T569 413Q569 450 539 476T468 503H337V316Z" />
<glyph unicode="&#xaf;" horiz-adv-x="280" d="M0 604V627H280V604H0Z" />
<glyph unicode="&#xb0;" horiz-adv-x="422" d="M211 411Q170 411 136 431T81 486T60 562Q60 604 80 638T135 692T211 713Q253 713 287 693T341 638T362 562Q362 521 342 487T287 432T211 411ZM211 433Q246 433 274 450T320 497T337 562Q337 598 320 627T275 673T211
690Q176 690 147 673T101 627T84 562Q84 526 101 497T147 451T211 433Z" />
<glyph unicode="&#xb1;" horiz-adv-x="530" d="M253 228V411H50V434H253V618H278V434H480V411H278V228H253ZM50 45V68H480V45H50Z" />
<glyph unicode="&#xb2;" horiz-adv-x="426" d="M144 289Q115 289 95 299T66 326T56 360Q56 377 66 394T95 422L289 529Q310 540 320 559T331 600Q331 629 311 653T249 677H79V700H244Q282 700 306 686T343 649T356 600Q356 575 343 550T304 511L109 402Q81 386
81 360Q81 342 96 327T140 312H362V289H144Z" />
<glyph unicode="&#xb3;" horiz-adv-x="425" d="M60 289V312H250Q291 312 313 336T335 395Q335 432 312 459T244 487H85V510H248Q280 510 305 534T331 594Q331 632 308 654T251 677H60V700H253Q283 700 306 686T342 648T356 594Q356 565 340 539T289 498Q324 487
342 458T360 396Q360 369 348 345T313 305T255 289H60Z" />
<glyph unicode="&#xb4;" horiz-adv-x="205" d="M46 757L150 880H178L74 757H46Z" />
<glyph unicode="&#xb5;" horiz-adv-x="617" d="M85 -203V510H111V215Q111 147 139 101T213 33T307 10Q358 10 403 33T477 101T506 215V510H532V211Q532 137 500 87T416 12T308 -13Q268 -13 229 0T158 41T111 108V-203H85Z" />
<glyph unicode="&#xb6;" horiz-adv-x="649" d="M307 -203V246Q227 246 172 280T88 369T60 481Q60 537 87 587T168 668T307 700H612V677H529V-203H504V677H332V-203H307Z" />
<glyph unicode="&#xb7;" horiz-adv-x="266" d="M134 342Q124 342 116 350T108 368Q108 379 116 386T134 394Q145 394 152 387T160 368Q160 358 153 350T134 342Z" />
<glyph unicode="&#xb8;" horiz-adv-x="204" d="M25 -203L114 14H143L50 -203H25Z" />
<glyph unicode="&#xb9;" horiz-adv-x="372" d="M65 289V312H181V677H73V700H206V312H312V289H65Z" />
<glyph unicode="&#xba;" horiz-adv-x="434" d="M218 386Q169 386 134 407T79 465T60 544Q60 589 79 626T133 684T218 706H410V679H301Q340 658 357 622T374 544Q374 498 354 462T299 406T218 386ZM218 413Q272 413 308 449T344 544Q344 600 311 639T218 679Q157
679 124 640T90 544Q90 492 123 453T218 413Z" />
<glyph unicode="&#xbb;" horiz-adv-x="493" d="M263 119L418 314L263 510H293L448 314L293 119H263ZM45 119L200 314L45 510H75L230 314L75 119H45Z" />
<glyph unicode="&#xbc;" horiz-adv-x="1000" d="M827 0V100H654Q622 100 602 120T582 169Q582 180 585 191T595 212L713 411H741L615 202Q606 187 606 171Q606 152 620 138T660 123H827V273H852V123H935V100H852V0H827ZM65 289V312H181V677H73V700H206V312H312V289H65ZM203
0L703 700H733L233 0H203Z" />
<glyph unicode="&#xbd;" horiz-adv-x="1041" d="M65 289V312H181V677H73V700H206V312H312V289H65ZM218 0L718 700H748L248 0H218ZM746 42Q717 42 697 52T668 79T658 113Q658 130 668 147T697 175L891 282Q912 293 922 312T933 353Q933 382 913 406T851 430H681V453H846Q884
453 908 439T945 402T958 353Q958 328 945 303T906 264L711 155Q683 139 683 113Q683 95 698 80T742 65H964V42H746Z" />
<glyph unicode="&#xbe;" horiz-adv-x="1048" d="M875 0V100H702Q670 100 650 120T630 169Q630 180 633 191T643 212L761 411H789L663 202Q654 187 654 171Q654 152 668 138T708 123H875V273H900V123H983V100H900V0H875ZM60 289V312H250Q291 312 313 336T335 395Q335
432 312 459T244 487H85V510H248Q280 510 305 534T331 594Q331 632 308 654T251 677H60V700H253Q283 700 306 686T342 648T356 594Q356 565 340 539T289 498Q324 487 342 458T360 396Q360 369 348 345T313 305T255 289H60ZM251 0L751 700H781L281 0H251Z" />
<glyph unicode="&#xbf;" horiz-adv-x="391" d="M287 -190Q200 -190 142 -156T54 -67T24 47Q24 106 53 159T140 247T287 282V257Q208 257 156 226T77 147T50 45Q50 -8 76 -56T155 -136T287 -167H341V-190H287ZM267 517Q278 517 285 510T293 491Q293 481 286 473T267
465Q257 465 249 473T241 491Q241 498 244 504T254 513T267 517Z" />
<glyph unicode="&#xc0;" horiz-adv-x="655" d="M5 0L259 650Q273 685 288 699T326 713Q350 713 365 699T394 651L650 0H623L539 212H115L32 0H5ZM124 235H530L370 642Q361 664 352 677T326 690Q309 690 301 678T283 642L124 235ZM305 757L201 880H229L333 757H305Z" />
<glyph unicode="&#xc1;" horiz-adv-x="655" d="M5 0L259 650Q273 685 288 699T326 713Q350 713 365 699T394 651L650 0H623L539 212H115L32 0H5ZM124 235H530L370 642Q361 664 352 677T326 690Q309 690 301 678T283 642L124 235ZM328 757L432 880H460L356 757H328Z" />
<glyph unicode="&#xc2;" horiz-adv-x="655" d="M5 0L259 650Q273 685 288 699T326 713Q350 713 365 699T394 651L650 0H623L539 212H115L32 0H5ZM124 235H530L370 642Q361 664 352 677T326 690Q309 690 301 678T283 642L124 235ZM204 757L308 880H348L452 757H424L328
867L232 757H204Z" />
<glyph unicode="&#xc3;" horiz-adv-x="655" d="M5 0L259 650Q273 685 288 699T326 713Q350 713 365 699T394 651L650 0H623L539 212H115L32 0H5ZM124 235H530L370 642Q361 664 352 677T326 690Q309 690 301 678T283 642L124 235ZM404 747Q378 747 362 757T335
783T314 814Q303 832 289 846T250 860Q228 860 211 839T194 779V757H170V779Q170 830 195 856T250 882Q285 882 303 864T335 825Q348 804 362 787T404 769Q427 769 444 790T461 851V873H485V851Q485 799 460 773T404 747Z" />
<glyph unicode="&#xc4;" horiz-adv-x="655" d="M5 0L259 650Q273 685 288 699T326 713Q350 713 365 699T394 651L650 0H623L539 212H115L32 0H5ZM124 235H530L370 642Q361 664 352 677T326 690Q309 690 301 678T283 642L124 235ZM391 650Q383 650 377 656T370
671Q370 680 376 686T391 693Q400 693 406 687T413 671Q413 663 407 657T391 650ZM238 650Q230 650 224 656T217 671Q217 680 223 686T238 693Q247 693 253 687T260 671Q260 663 254 657T238 650Z" />
<glyph unicode="&#xc5;" horiz-adv-x="655" d="M5 0L259 650Q273 685 288 699T326 713Q350 713 365 699T394 651L650 0H623L539 212H115L32 0H5ZM124 235H530L370 642Q361 664 352 677T326 690Q309 690 301 678T283 642L124 235ZM327 755Q287 755 260 782T232
850Q232 890 259 917T327 945Q367 945 394 918T422 850Q422 810 395 783T327 755ZM327 777Q357 777 378 798T399 850Q399 881 378 902T327 923Q297 923 276 902T255 850Q255 819 276 798T327 777Z" />
<glyph unicode="&#xc6;" horiz-adv-x="934" d="M5 0L259 650Q273 685 288 699T326 713Q350 713 366 699T394 651L432 556Q430 595 449 628T509 680T609 700H919V677H602Q538 677 501 649T455 574T464 474L506 368H877V345H515L615 92Q626 64 653 44T721 23H919V0H720Q674
0 640 23T592 81L540 212H115L32 0H5ZM124 235H531L370 642Q361 664 352 677T326 690Q309 690 301 678T283 642L124 235Z" />
<glyph unicode="&#xc7;" horiz-adv-x="538" d="M387 0Q309 0 244 27T130 103T56 215T30 351Q30 423 56 486T130 597T243 672T387 700H449V677H390Q320 677 260 652T154 583T84 480T58 351Q58 281 83 222T154 118T259 49T390 24H449V0H387ZM250 -203L339 14H368L275
-203H250Z" />
<glyph unicode="&#xc8;" horiz-adv-x="549" d="M238 0Q180 0 140 26T80 95T59 182Q59 238 89 287T180 356Q120 380 93 424T65 518Q65 568 88 609T150 674T239 699H499V676H242Q197 676 163 655T110 598T90 518Q90 478 111 444T167 389T248 368H459V345H255Q198
345 160 321T103 260T84 181Q84 141 102 105T156 46T245 23H499V0H238ZM304 757L200 880H228L332 757H304Z" />
<glyph unicode="&#xc9;" horiz-adv-x="549" d="M238 0Q180 0 140 26T80 95T59 182Q59 238 89 287T180 356Q120 380 93 424T65 518Q65 568 88 609T150 674T239 699H499V676H242Q197 676 163 655T110 598T90 518Q90 478 111 444T167 389T248 368H459V345H255Q198
345 160 321T103 260T84 181Q84 141 102 105T156 46T245 23H499V0H238ZM295 757L399 880H427L323 757H295Z" />
<glyph unicode="&#xca;" horiz-adv-x="549" d="M238 0Q180 0 140 26T80 95T59 182Q59 238 89 287T180 356Q120 380 93 424T65 518Q65 568 88 609T150 674T239 699H499V676H242Q197 676 163 655T110 598T90 518Q90 478 111 444T167 389T248 368H459V345H255Q198
345 160 321T103 260T84 181Q84 141 102 105T156 46T245 23H499V0H238ZM200 757L304 880H344L448 757H420L324 867L228 757H200Z" />
<glyph unicode="&#xcb;" horiz-adv-x="549" d="M238 0Q180 0 140 26T80 95T59 182Q59 238 89 287T180 356Q120 380 93 424T65 518Q65 568 88 609T150 674T239 699H499V676H242Q197 676 163 655T110 598T90 518Q90 478 111 444T167 389T248 368H459V345H255Q198
345 160 321T103 260T84 181Q84 141 102 105T156 46T245 23H499V0H238ZM383 650Q375 650 369 656T362 671Q362 680 368 686T383 693Q392 693 398 687T405 671Q405 663 399 657T383 650ZM230 650Q222 650 216 656T209 671Q209 680 215 686T230 693Q239 693 245 687T252
671Q252 663 246 657T230 650Z" />
<glyph unicode="&#xcc;" horiz-adv-x="424" d="M52 0V23H200V677H52V700H372V677H225V23H372V0H52ZM200 757L96 880H124L228 757H200Z" />
<glyph unicode="&#xcd;" horiz-adv-x="424" d="M52 0V23H200V677H52V700H372V677H225V23H372V0H52ZM219 758L323 881H351L247 758H219Z" />
<glyph unicode="&#xce;" horiz-adv-x="424" d="M52 0V23H200V677H52V700H372V677H225V23H372V0H52ZM88 757L192 880H232L336 757H308L212 867L116 757H88Z" />
<glyph unicode="&#xcf;" horiz-adv-x="424" d="M52 0V23H200V677H52V700H372V677H225V23H372V0H52ZM276 906Q268 906 262 912T255 927Q255 936 261 942T276 949Q285 949 291 943T298 927Q298 919 292 913T276 906ZM123 906Q115 906 109 912T102 927Q102 936 108
942T123 949Q132 949 138 943T145 927Q145 919 139 913T123 906Z" />
<glyph unicode="&#xd0;" horiz-adv-x="714" d="M85 0V346H0V369H85V700H292Q402 700 483 655T609 532T654 351Q654 249 610 170T484 45T292 0H85ZM110 23H294Q390 23 466 62T585 175T629 351Q629 452 586 525T466 637T294 677H110V369H318V346H110V23Z" />
<glyph unicode="&#xd1;" horiz-adv-x="790" d="M549 -13Q503 -13 467 8T409 69T388 160V547Q388 588 369 620T319 671T249 690Q211 690 179 672T129 621T110 547V0H85V540Q85 592 106 631T164 691T249 713Q296 713 333 692T391 631T413 540V153Q413 111 432 79T482
29T549 10Q585 10 615 28T662 79T680 153V700H705V160Q705 108 685 69T630 9T549 -13ZM487 747Q461 747 445 757T418 783T397 814Q386 832 372 846T333 860Q311 860 294 839T277 779V757H253V779Q253 830 278 856T333 882Q368 882 386 864T418 825Q431 804 445
787T487 769Q510 769 527 790T544 851V873H568V851Q568 799 543 773T487 747Z" />
<glyph unicode="&#xd2;" horiz-adv-x="838" d="M419 -13Q338 -13 272 15T158 93T86 209T60 350Q60 425 85 491T158 607T271 685T420 713Q501 713 567 685T680 607T752 491T778 350Q778 275 753 209T680 93T567 15T419 -13ZM419 10Q491 10 552 35T658 107T728 215T753
350Q753 423 728 485T658 593T552 664T419 690Q347 690 286 665T180 593T110 485T85 350Q85 277 110 215T180 107T286 36T419 10ZM411 757L307 880H335L439 757H411Z" />
<glyph unicode="&#xd3;" horiz-adv-x="838" d="M419 -13Q338 -13 272 15T158 93T86 209T60 350Q60 425 85 491T158 607T271 685T420 713Q501 713 567 685T680 607T752 491T778 350Q778 275 753 209T680 93T567 15T419 -13ZM419 10Q491 10 552 35T658 107T728 215T753
350Q753 423 728 485T658 593T552 664T419 690Q347 690 286 665T180 593T110 485T85 350Q85 277 110 215T180 107T286 36T419 10ZM412 757L516 880H544L440 757H412Z" />
<glyph unicode="&#xd4;" horiz-adv-x="838" d="M419 -13Q338 -13 272 15T158 93T86 209T60 350Q60 425 85 491T158 607T271 685T420 713Q501 713 567 685T680 607T752 491T778 350Q778 275 753 209T680 93T567 15T419 -13ZM419 10Q491 10 552 35T658 107T728 215T753
350Q753 423 728 485T658 593T552 664T419 690Q347 690 286 665T180 593T110 485T85 350Q85 277 110 215T180 107T286 36T419 10ZM294 757L398 880H438L542 757H514L418 867L322 757H294Z" />
<glyph unicode="&#xd5;" horiz-adv-x="838" d="M419 -13Q338 -13 272 15T158 93T86 209T60 350Q60 425 85 491T158 607T271 685T420 713Q501 713 567 685T680 607T752 491T778 350Q778 275 753 209T680 93T567 15T419 -13ZM419 10Q491 10 552 35T658 107T728 215T753
350Q753 423 728 485T658 593T552 664T419 690Q347 690 286 665T180 593T110 485T85 350Q85 277 110 215T180 107T286 36T419 10ZM494 747Q468 747 452 757T425 783T404 814Q393 832 379 846T340 860Q318 860 301 839T284 779V757H260V779Q260 830 285 856T340
882Q375 882 393 864T425 825Q438 804 452 787T494 769Q517 769 534 790T551 851V873H575V851Q575 799 550 773T494 747Z" />
<glyph unicode="&#xd6;" horiz-adv-x="838" d="M419 -13Q338 -13 272 15T158 93T86 209T60 350Q60 425 85 491T158 607T271 685T420 713Q501 713 567 685T680 607T752 491T778 350Q778 275 753 209T680 93T567 15T419 -13ZM419 10Q491 10 552 35T658 107T728 215T753
350Q753 423 728 485T658 593T552 664T419 690Q347 690 286 665T180 593T110 485T85 350Q85 277 110 215T180 107T286 36T419 10ZM483 650Q475 650 469 656T462 671Q462 680 468 686T483 693Q492 693 498 687T505 671Q505 663 499 657T483 650ZM330 650Q322 650
316 656T309 671Q309 680 315 686T330 693Q339 693 345 687T352 671Q352 663 346 657T330 650Z" />
<glyph unicode="&#xd7;" horiz-adv-x="496" d="M67 146L50 163L232 345L50 526L67 543L249 362L430 543L447 526L266 345L447 163L430 146L249 328L67 146Z" />
<glyph unicode="&#xd8;" horiz-adv-x="838" d="M419 -13Q342 -13 279 12T168 83L85 0H52L152 100Q108 149 84 213T60 350Q60 425 85 491T158 607T271 685T419 713Q496 713 559 688T669 618L752 701H787L686 600Q730 551 754 487T778 350Q778 275 753 209T680 93T567
15T419 -13ZM419 10Q491 10 552 35T658 107T728 215T753 350Q753 419 731 478T668 582L186 101Q230 58 289 34T419 10ZM170 118L651 600Q607 642 548 666T419 690Q347 690 286 665T180 593T110 485T85 350Q85 282 107 223T170 118Z" />
<glyph unicode="&#xd9;" horiz-adv-x="685" d="M343 -13Q268 -13 210 20T118 116T85 264V700H110V253Q110 187 138 132T219 44T343 11Q415 11 467 44T547 132T575 253V700H600V264Q600 179 567 117T476 21T343 -13ZM333 757L229 880H257L361 757H333Z" />
<glyph unicode="&#xda;" horiz-adv-x="685" d="M343 -13Q268 -13 210 20T118 116T85 264V700H110V253Q110 187 138 132T219 44T343 11Q415 11 467 44T547 132T575 253V700H600V264Q600 179 567 117T476 21T343 -13ZM333 757L437 880H465L361 757H333Z" />
<glyph unicode="&#xdb;" horiz-adv-x="685" d="M343 -13Q268 -13 210 20T118 116T85 264V700H110V253Q110 187 138 132T219 44T343 11Q415 11 467 44T547 132T575 253V700H600V264Q600 179 567 117T476 21T343 -13ZM219 757L323 880H363L467 757H439L343 867L247
757H219Z" />
<glyph unicode="&#xdc;" horiz-adv-x="685" d="M343 -13Q268 -13 210 20T118 116T85 264V700H110V253Q110 187 138 132T219 44T343 11Q415 11 467 44T547 132T575 253V700H600V264Q600 179 567 117T476 21T343 -13ZM406 650Q398 650 392 656T385 671Q385 680 391
686T406 693Q415 693 421 687T428 671Q428 663 422 657T406 650ZM253 650Q245 650 239 656T232 671Q232 680 238 686T253 693Q262 693 268 687T275 671Q275 663 269 657T253 650Z" />
<glyph unicode="&#xdd;" horiz-adv-x="685" d="M329 0V217Q245 221 191 260T111 361T85 496V699H110V490Q110 424 136 367T215 275T343 240Q419 240 470 275T548 367T575 490V699H600V496Q600 424 574 362T493 260T354 217V0H329ZM336 757L440 880H468L364 757H336Z" />
<glyph unicode="&#xde;" horiz-adv-x="665" d="M85 0V700H110V565H383Q444 565 494 538T575 463T605 349Q605 287 577 239T497 163T377 135H110V0H85ZM110 158H375Q432 158 478 180T552 246T580 349Q580 410 553 453T479 519T379 542H110V158Z" />
<glyph unicode="&#xdf;" horiz-adv-x="648" d="M80 0V502Q80 553 98 597T149 674T226 725T325 743Q389 743 441 719T526 652T558 551Q558 513 542 478T491 417T397 381Q461 370 503 341T566 273T588 196Q588 147 563 102T492 29T383 0H290V23H377Q437 23 478 48T540
112T561 193Q561 237 536 276T460 341T335 368H330V391H335Q395 392 439 412T508 468T533 547Q533 600 504 639T428 699T325 720Q261 720 211 692T132 613T103 493V0H80Z" />
<glyph unicode="&#xe0;" horiz-adv-x="638" d="M314 -13Q233 -13 176 22T90 119T60 256Q60 332 91 392T181 487T321 522Q395 522 451 488T540 396T572 264V0H547V133H544Q530 101 499 67T422 10T314 -13ZM314 9Q380 9 432 41T516 129T546 258Q546 328 518 382T439
468T319 500Q246 500 194 468T114 379T86 250Q86 184 112 129T190 42T314 9ZM296 577L192 700H220L324 577H296Z" />
<glyph unicode="&#xe1;" horiz-adv-x="638" d="M314 -13Q233 -13 176 22T90 119T60 256Q60 332 91 392T181 487T321 522Q395 522 451 488T540 396T572 264V0H547V133H544Q530 101 499 67T422 10T314 -13ZM314 9Q380 9 432 41T516 129T546 258Q546 328 518 382T439
468T319 500Q246 500 194 468T114 379T86 250Q86 184 112 129T190 42T314 9ZM317 577L421 700H449L345 577H317Z" />
<glyph unicode="&#xe2;" horiz-adv-x="638" d="M314 -13Q233 -13 176 22T90 119T60 256Q60 332 91 392T181 487T321 522Q395 522 451 488T540 396T572 264V0H547V133H544Q530 101 499 67T422 10T314 -13ZM314 9Q380 9 432 41T516 129T546 258Q546 328 518 382T439
468T319 500Q246 500 194 468T114 379T86 250Q86 184 112 129T190 42T314 9ZM194 577L298 700H338L442 577H414L318 687L222 577H194Z" />
<glyph unicode="&#xe3;" horiz-adv-x="638" d="M314 -13Q233 -13 176 22T90 119T60 256Q60 332 91 392T181 487T321 522Q395 522 451 488T540 396T572 264V0H547V133H544Q530 101 499 67T422 10T314 -13ZM314 9Q380 9 432 41T516 129T546 258Q546 328 518 382T439
468T319 500Q246 500 194 468T114 379T86 250Q86 184 112 129T190 42T314 9ZM393 587Q367 587 351 597T324 623T303 654Q292 672 278 686T239 700Q217 700 200 679T183 619V597H159V619Q159 670 184 696T239 722Q274 722 292 704T324 665Q337 644 351 627T393 609Q416
609 433 630T450 691V713H474V691Q474 639 449 613T393 587Z" />
<glyph unicode="&#xe4;" horiz-adv-x="638" d="M314 -13Q233 -13 176 22T90 119T60 256Q60 332 91 392T181 487T321 522Q395 522 451 488T540 396T572 264V0H547V133H544Q530 101 499 67T422 10T314 -13ZM314 9Q380 9 432 41T516 129T546 258Q546 328 518 382T439
468T319 500Q246 500 194 468T114 379T86 250Q86 184 112 129T190 42T314 9ZM387 503Q379 503 373 509T366 524Q366 533 372 539T387 546Q396 546 402 540T409 524Q409 516 403 510T387 503ZM234 503Q226 503 220 509T213 524Q213 533 219 539T234 546Q243 546
249 540T256 524Q256 516 250 510T234 503Z" />
<glyph unicode="&#xe5;" horiz-adv-x="638" d="M314 -13Q233 -13 176 22T90 119T60 256Q60 332 91 392T181 487T321 522Q395 522 451 488T540 396T572 264V0H547V133H544Q530 101 499 67T422 10T314 -13ZM314 9Q380 9 432 41T516 129T546 258Q546 328 518 382T439
468T319 500Q246 500 194 468T114 379T86 250Q86 184 112 129T190 42T314 9ZM308 568Q268 568 241 595T213 663Q213 703 240 730T308 758Q348 758 375 731T403 663Q403 623 376 596T308 568ZM308 590Q338 590 359 611T380 663Q380 694 359 715T308 736Q278 736
257 715T236 663Q236 632 257 611T308 590Z" />
<glyph unicode="&#xe6;" horiz-adv-x="983" d="M178 0Q142 0 113 19T67 71T50 147Q50 189 67 219T113 265T179 282H460V380Q460 427 431 457T353 488H97V510H356Q414 510 449 472T485 374Q511 438 565 480T697 522Q765 522 816 491T895 407T923 287Q923 276 923
266T920 244H488Q488 172 523 123T616 48T740 23H860V0H748Q659 0 589 35T485 142Q485 82 447 41T348 0H178ZM182 22H347Q394 22 427 56T461 140V260H187Q132 260 104 227T75 146Q75 117 88 88T125 41T182 22ZM488 267H896Q898 287 895 316T881 377T846 436T786
481T694 499Q646 499 608 479T543 424T502 349T488 267Z" />
<glyph unicode="&#xe7;" horiz-adv-x="434" d="M335 0Q256 0 194 34T96 125T60 255Q60 327 96 384T194 476T335 510H389V487H327Q263 487 208 456T119 373T85 255Q85 190 119 138T208 54T327 23H389V0H335ZM193 -203L282 14H311L218 -203H193Z" />
<glyph unicode="&#xe8;" horiz-adv-x="581" d="M346 0Q267 0 202 28T99 113T60 255Q60 324 88 385T168 484T295 522Q363 522 414 491T493 407T521 287Q521 276 521 266T518 244H86Q86 172 121 123T214 48T338 23H458V0H346ZM86 267H494Q496 287 493 316T479 377T444
436T384 481T292 499Q244 499 206 479T141 424T100 349T86 267ZM278 577L174 700H202L306 577H278Z" />
<glyph unicode="&#xe9;" horiz-adv-x="581" d="M346 0Q267 0 202 28T99 113T60 255Q60 324 88 385T168 484T295 522Q363 522 414 491T493 407T521 287Q521 276 521 266T518 244H86Q86 172 121 123T214 48T338 23H458V0H346ZM86 267H494Q496 287 493 316T479 377T444
436T384 481T292 499Q244 499 206 479T141 424T100 349T86 267ZM291 577L395 700H423L319 577H291Z" />
<glyph unicode="&#xea;" horiz-adv-x="581" d="M346 0Q267 0 202 28T99 113T60 255Q60 324 88 385T168 484T295 522Q363 522 414 491T493 407T521 287Q521 276 521 266T518 244H86Q86 172 121 123T214 48T338 23H458V0H346ZM86 267H494Q496 287 493 316T479 377T444
436T384 481T292 499Q244 499 206 479T141 424T100 349T86 267ZM179 577L283 700H323L427 577H399L303 687L207 577H179Z" />
<glyph unicode="&#xeb;" horiz-adv-x="581" d="M346 0Q267 0 202 28T99 113T60 255Q60 324 88 385T168 484T295 522Q363 522 414 491T493 407T521 287Q521 276 521 266T518 244H86Q86 172 121 123T214 48T338 23H458V0H346ZM86 267H494Q496 287 493 316T479 377T444
436T384 481T292 499Q244 499 206 479T141 424T100 349T86 267ZM366 503Q358 503 352 509T345 524Q345 533 351 539T366 546Q375 546 381 540T388 524Q388 516 382 510T366 503ZM213 503Q205 503 199 509T192 524Q192 533 198 539T213 546Q222 546 228 540T235
524Q235 516 229 510T213 503Z" />
<glyph unicode="&#xec;" horiz-adv-x="195" d="M85 0V510H110V0H85ZM80 577L-24 700H4L108 577H80Z" />
<glyph unicode="&#xed;" horiz-adv-x="195" d="M85 0V510H110V0H85ZM76 577L180 700H208L104 577H76Z" />
<glyph unicode="&#xee;" horiz-adv-x="195" d="M85 0V510H110V0H85ZM-26 577L78 700H118L222 577H194L98 687L2 577H-26Z" />
<glyph unicode="&#xef;" horiz-adv-x="195" d="M85 0V510H110V0H85ZM161 504Q153 504 147 510T140 525Q140 534 146 540T161 547Q170 547 176 541T183 525Q183 517 177 511T161 504ZM8 504Q0 504 -6 510T-13 525Q-13 534 -7 540T8 547Q17 547 23 541T30 525Q30
517 24 511T8 504Z" />
<glyph unicode="&#xf0;" horiz-adv-x="648" d="M313 -13Q266 -13 221 3T140 53T82 137T60 255Q60 341 96 400T189 491T312 522Q350 522 384 512T446 481L447 482L355 625L178 597V618L342 644L287 730L314 732L368 648L466 664V642L381 629L519 416Q539 382 548
353T560 300T563 253Q563 164 527 105T433 16T313 -13ZM314 10Q370 10 421 37T505 118T538 253Q538 335 505 389T421 471T311 499Q254 499 203 470T118 387T85 255Q85 174 118 120T204 38T314 10Z" />
<glyph unicode="&#xf1;" d="M85 0V299Q85 374 117 423T201 498T307 523Q363 523 413 498T496 424T529 299V0H504V295Q504 363 476 408T402 477T306 500Q257 500 212 478T139 410T110 295V0H85ZM394 587Q368 587 352 597T325 623T304 654Q293 672 279 686T240 700Q218
700 201 679T184 619V597H160V619Q160 670 185 696T240 722Q275 722 293 704T325 665Q338 644 352 627T394 609Q417 609 434 630T451 691V713H475V691Q475 639 450 613T394 587Z" />
<glyph unicode="&#xf2;" horiz-adv-x="636" d="M318 -13Q242 -13 184 22T93 119T60 255Q60 330 93 391T184 487T318 523Q394 523 452 488T543 392T576 255Q576 180 543 119T452 23T318 -13ZM318 10Q386 10 438 42T521 130T551 255Q551 324 521 379T439 467T318
500Q250 500 198 468T115 380T85 255Q85 186 115 131T197 43T318 10ZM295 577L191 700H219L323 577H295Z" />
<glyph unicode="&#xf3;" horiz-adv-x="636" d="M318 -13Q242 -13 184 22T93 119T60 255Q60 330 93 391T184 487T318 523Q394 523 452 488T543 392T576 255Q576 180 543 119T452 23T318 -13ZM318 10Q386 10 438 42T521 130T551 255Q551 324 521 379T439 467T318
500Q250 500 198 468T115 380T85 255Q85 186 115 131T197 43T318 10ZM318 577L422 700H450L346 577H318Z" />
<glyph unicode="&#xf4;" horiz-adv-x="636" d="M318 -13Q242 -13 184 22T93 119T60 255Q60 330 93 391T184 487T318 523Q394 523 452 488T543 392T576 255Q576 180 543 119T452 23T318 -13ZM318 10Q386 10 438 42T521 130T551 255Q551 324 521 379T439 467T318
500Q250 500 198 468T115 380T85 255Q85 186 115 131T197 43T318 10ZM194 577L298 700H338L442 577H414L318 687L222 577H194Z" />
<glyph unicode="&#xf5;" horiz-adv-x="636" d="M318 -13Q242 -13 184 22T93 119T60 255Q60 330 93 391T184 487T318 523Q394 523 452 488T543 392T576 255Q576 180 543 119T452 23T318 -13ZM318 10Q386 10 438 42T521 130T551 255Q551 324 521 379T439 467T318
500Q250 500 198 468T115 380T85 255Q85 186 115 131T197 43T318 10ZM391 587Q365 587 349 597T322 623T301 654Q290 672 276 686T237 700Q215 700 198 679T181 619V597H157V619Q157 670 182 696T237 722Q272 722 290 704T322 665Q335 644 349 627T391 609Q414
609 431 630T448 691V713H472V691Q472 639 447 613T391 587Z" />
<glyph unicode="&#xf6;" horiz-adv-x="636" d="M318 -13Q242 -13 184 22T93 119T60 255Q60 330 93 391T184 487T318 523Q394 523 452 488T543 392T576 255Q576 180 543 119T452 23T318 -13ZM318 10Q386 10 438 42T521 130T551 255Q551 324 521 379T439 467T318
500Q250 500 198 468T115 380T85 255Q85 186 115 131T197 43T318 10ZM375 503Q367 503 361 509T354 524Q354 533 360 539T375 546Q384 546 390 540T397 524Q397 516 391 510T375 503ZM222 503Q214 503 208 509T201 524Q201 533 207 539T222 546Q231 546 237 540T244
524Q244 516 238 510T222 503Z" />
<glyph unicode="&#xf7;" horiz-adv-x="600" d="M301 477Q285 477 274 488T262 516Q262 532 273 543T301 555Q317 555 328 544T340 516Q340 500 329 489T301 477ZM301 145Q285 145 274 156T262 184Q262 200 273 211T301 223Q317 223 328 212T340 184Q340 168 329
157T301 145ZM85 334V357H515V334H85Z" />
<glyph unicode="&#xf8;" horiz-adv-x="636" d="M318 -13Q265 -13 220 5T142 55L91 0H59L125 72Q94 107 77 154T60 255Q60 330 93 391T184 487T318 523Q368 523 410 508T485 463L528 510H560L503 447Q538 411 557 362T576 255Q576 180 543 119T452 23T318 -13ZM318
10Q386 10 438 42T521 130T551 255Q551 307 534 351T486 429L158 73Q189 44 229 27T318 10ZM142 90L469 445Q439 471 401 485T318 500Q250 500 198 468T115 380T85 255Q85 207 100 165T142 90Z" />
<glyph unicode="&#xf9;" horiz-adv-x="617" d="M308 -13Q253 -13 202 12T118 87T85 211V510H111V215Q111 147 139 101T213 33T307 10Q358 10 403 33T477 101T506 215V510H532V211Q532 137 499 87T415 12T308 -13ZM276 577L172 700H200L304 577H276Z" />
<glyph unicode="&#xfa;" horiz-adv-x="617" d="M308 -13Q253 -13 202 12T118 87T85 211V510H111V215Q111 147 139 101T213 33T307 10Q358 10 403 33T477 101T506 215V510H532V211Q532 137 499 87T415 12T308 -13ZM296 577L400 700H428L324 577H296Z" />
<glyph unicode="&#xfb;" horiz-adv-x="617" d="M308 -13Q253 -13 202 12T118 87T85 211V510H111V215Q111 147 139 101T213 33T307 10Q358 10 403 33T477 101T506 215V510H532V211Q532 137 499 87T415 12T308 -13ZM184 577L288 700H328L432 577H404L308 687L212 577H184Z" />
<glyph unicode="&#xfc;" horiz-adv-x="617" d="M308 -13Q253 -13 202 12T118 87T85 211V510H111V215Q111 147 139 101T213 33T307 10Q358 10 403 33T477 101T506 215V510H532V211Q532 137 499 87T415 12T308 -13ZM377 503Q369 503 363 509T356 524Q356 533 362
539T377 546Q386 546 392 540T399 524Q399 516 393 510T377 503ZM224 503Q216 503 210 509T203 524Q203 533 209 539T224 546Q233 546 239 540T246 524Q246 516 240 510T224 503Z" />
<glyph unicode="&#xfd;" horiz-adv-x="616" d="M295 -203V-13Q241 -10 193 16T115 91T85 211V510H111V215Q111 147 139 101T213 33T307 10Q358 10 403 33T478 101T507 215V510H531V211Q531 139 501 90T423 16T320 -13V-203H295ZM290 577L394 700H422L318 577H290Z" />
<glyph unicode="&#xfe;" horiz-adv-x="648" d="M85 -203V730H110V377H113Q131 419 165 451T243 503T336 522Q401 522 458 491T552 401T588 255Q588 188 567 138T509 54T427 4T335 -13Q267 -13 205 21T111 125H110V-203H85ZM334 10Q391 10 443 37T529 119T563 255Q563
332 530 386T446 470T337 499Q280 499 228 472T143 390T110 253Q110 172 142 118T226 37T334 10Z" />
<glyph unicode="&#xff;" horiz-adv-x="616" d="M295 -203V-13Q241 -10 193 16T115 91T85 211V510H111V215Q111 147 139 101T213 33T307 10Q358 10 403 33T478 101T507 215V510H531V211Q531 139 501 90T423 16T320 -13V-203H295ZM380 503Q372 503 366 509T359 524Q359
533 365 539T380 546Q389 546 395 540T402 524Q402 516 396 510T380 503ZM227 503Q219 503 213 509T206 524Q206 533 212 539T227 546Q236 546 242 540T249 524Q249 516 243 510T227 503Z" />
<glyph unicode="&#x2013;" horiz-adv-x="500" d="M0 257V280H500V257H0Z" />
<glyph unicode="&#x2014;" horiz-adv-x="1000" d="M0 257V280H1000V257H0Z" />
<glyph unicode="&#x2018;" horiz-adv-x="136" d="M61 461Q51 461 43 468T35 487Q35 494 36 501T40 517L87 700H111L63 513Q73 512 80 505T87 487Q87 477 80 469T61 461Z" />
<glyph unicode="&#x2019;" horiz-adv-x="136" d="M25 468L73 655Q63 656 56 663T49 681Q49 692 57 699T75 707Q86 707 93 700T101 681Q101 674 100 667T96 651L49 468H25Z" />
<glyph unicode="&#x201a;" horiz-adv-x="122" d="M25 -139L59 -7Q49 -6 42 1T35 19Q35 30 43 37T61 45Q72 45 79 38T87 19Q87 12 86 5T82 -11L49 -139H25Z" />
<glyph unicode="&#x201c;" horiz-adv-x="262" d="M61 461Q51 461 43 468T35 487Q35 494 36 501T40 517L87 700H111L63 513Q73 512 80 505T87 487Q87 477 80 469T61 461ZM201 461Q191 461 183 468T175 487Q175 494 176 501T180 517L227 700H251L203 513Q213 512
220 505T227 487Q227 477 220 469T201 461Z" />
<glyph unicode="&#x201d;" horiz-adv-x="272" d="M25 468L73 655Q63 656 56 663T49 681Q49 692 57 699T75 707Q86 707 93 700T101 681Q101 674 100 667T96 651L49 468H25ZM161 468L209 655Q199 656 192 663T185 681Q185 692 193 699T211 707Q222 707 229 700T237
681Q237 674 236 667T232 651L185 468H161Z" />
<glyph unicode="&#x201e;" horiz-adv-x="282" d="M25 -139L59 -7Q49 -6 42 1T35 19Q35 30 43 37T61 45Q72 45 79 38T87 19Q87 12 86 5T82 -11L49 -139H25ZM175 -139L209 -7Q199 -6 192 1T185 19Q185 30 193 37T211 45Q222 45 229 38T237 19Q237 12 236 5T232 -11L199
-139H175Z" />
<glyph unicode="&#x2022;" horiz-adv-x="294" d="M108 213Q96 213 87 222T77 244Q77 257 86 266T108 275Q122 275 131 266T140 244Q140 232 131 223T108 213Z" />
<glyph unicode="&#x2039;" horiz-adv-x="275" d="M200 119L45 314L200 510H230L75 314L230 119H200Z" />
<glyph unicode="&#x203a;" horiz-adv-x="275" d="M45 119L200 314L45 510H75L230 314L75 119H45Z" />
</font>
</defs>
</svg>
